<mxfile host="65bd71144e">
    <diagram id="Q5uDhSl7cvO8ve5P25E5" name="Page-1">
        <mxGraphModel dx="1070" dy="779" grid="1" gridSize="10" guides="1" tooltips="1" connect="1" arrows="1" fold="1" page="1" pageScale="1" pageWidth="850" pageHeight="1100" math="0" shadow="0">
            <root>
                <mxCell id="0"/>
                <mxCell id="1" parent="0"/>
                <mxCell id="2" value="" style="rounded=0;whiteSpace=wrap;html=1;strokeColor=#FFFFFF;fontSize=16;fontColor=#FFFFFF;fillColor=#000000;gradientColor=none;gradientDirection=radial;" vertex="1" parent="1">
                    <mxGeometry x="1210" y="40" width="320" height="250" as="geometry"/>
                </mxCell>
                <mxCell id="3" value="" style="rounded=0;whiteSpace=wrap;html=1;strokeColor=#999999;fontSize=16;fontColor=#FFFFFF;fillColor=#F0F0F0;gradientColor=none;gradientDirection=radial;" vertex="1" parent="1">
                    <mxGeometry x="1210" y="205" width="320" height="60" as="geometry"/>
                </mxCell>
                <mxCell id="4" value="" style="rounded=0;whiteSpace=wrap;html=1;strokeColor=#999999;fontSize=16;fontColor=#FFFFFF;fillColor=#FFFFFF;gradientColor=none;gradientDirection=radial;" vertex="1" parent="1">
                    <mxGeometry x="1210" y="85" width="320" height="60" as="geometry"/>
                </mxCell>
                <mxCell id="5" value="" style="rounded=0;whiteSpace=wrap;html=1;strokeColor=#999999;fontSize=16;fontColor=#FFFFFF;fillColor=#FFFFFF;gradientColor=none;gradientDirection=radial;" vertex="1" parent="1">
                    <mxGeometry x="1210" y="145" width="320" height="60" as="geometry"/>
                </mxCell>
                <mxCell id="6" value="" style="rounded=0;whiteSpace=wrap;html=1;" vertex="1" parent="1">
                    <mxGeometry x="30" y="40" width="660" height="910" as="geometry"/>
                </mxCell>
                <mxCell id="7" value="" style="rounded=0;whiteSpace=wrap;html=1;fillColor=#000000;" vertex="1" parent="1">
                    <mxGeometry x="30" y="40" width="660" height="80" as="geometry"/>
                </mxCell>
                <mxCell id="8" value="&lt;font color=&quot;#ffffff&quot;&gt;&lt;font style=&quot;font-size: 18px;&quot;&gt;Featherdusters&lt;/font&gt;&lt;br&gt;&lt;/font&gt;" style="text;html=1;strokeColor=none;fillColor=none;align=center;verticalAlign=middle;whiteSpace=wrap;rounded=0;" vertex="1" parent="1">
                    <mxGeometry x="70" y="65" width="60" height="30" as="geometry"/>
                </mxCell>
                <mxCell id="9" value="&lt;font size=&quot;1&quot; style=&quot;&quot;&gt;&lt;span style=&quot;font-size: 18px;&quot;&gt;Home&lt;/span&gt;&lt;/font&gt;" style="text;html=1;strokeColor=none;fillColor=none;align=center;verticalAlign=middle;whiteSpace=wrap;rounded=0;fontColor=#FFFFFF;" vertex="1" parent="1">
                    <mxGeometry x="390" y="65" width="60" height="30" as="geometry"/>
                </mxCell>
                <mxCell id="10" value="&lt;font style=&quot;font-size: 18px;&quot;&gt;About Us&lt;/font&gt;" style="text;html=1;strokeColor=none;fillColor=none;align=center;verticalAlign=middle;whiteSpace=wrap;rounded=0;fontColor=#FFFFFF;" vertex="1" parent="1">
                    <mxGeometry x="460" y="65" width="80" height="30" as="geometry"/>
                </mxCell>
                <mxCell id="11" value="&lt;font style=&quot;font-size: 18px;&quot;&gt;&lt;u&gt;Contact Us&lt;/u&gt;&lt;/font&gt;" style="text;html=1;strokeColor=none;fillColor=none;align=center;verticalAlign=middle;whiteSpace=wrap;rounded=0;fontColor=#FFFFFF;" vertex="1" parent="1">
                    <mxGeometry x="550" y="65" width="100" height="30" as="geometry"/>
                </mxCell>
                <mxCell id="12" value="&lt;font style=&quot;font-size: 16px;&quot;&gt;Content?&lt;/font&gt;" style="text;html=1;strokeColor=none;fillColor=none;align=center;verticalAlign=middle;whiteSpace=wrap;rounded=0;" vertex="1" parent="1">
                    <mxGeometry x="65" y="120" width="570" height="130" as="geometry"/>
                </mxCell>
                <mxCell id="14" value="" style="rounded=0;whiteSpace=wrap;html=1;" vertex="1" parent="1">
                    <mxGeometry x="730" y="40" width="460" height="2070" as="geometry"/>
                </mxCell>
                <mxCell id="15" value="" style="rounded=0;whiteSpace=wrap;html=1;fillColor=#000000;" vertex="1" parent="1">
                    <mxGeometry x="730" y="40" width="460" height="80" as="geometry"/>
                </mxCell>
                <mxCell id="16" value="&lt;font color=&quot;#ffffff&quot;&gt;&lt;font style=&quot;font-size: 18px;&quot;&gt;Featherdusters&lt;/font&gt;&lt;br&gt;&lt;/font&gt;" style="text;html=1;strokeColor=none;fillColor=none;align=center;verticalAlign=middle;whiteSpace=wrap;rounded=0;" vertex="1" parent="1">
                    <mxGeometry x="770" y="65" width="60" height="30" as="geometry"/>
                </mxCell>
                <mxCell id="17" value="&lt;font size=&quot;1&quot; color=&quot;#000000&quot; style=&quot;&quot;&gt;&lt;span style=&quot;font-size: 18px;&quot;&gt;Home&lt;/span&gt;&lt;/font&gt;" style="text;html=1;strokeColor=none;fillColor=none;align=center;verticalAlign=middle;whiteSpace=wrap;rounded=0;fontColor=#FFFFFF;" vertex="1" parent="1">
                    <mxGeometry x="1260" y="100" width="230" height="30" as="geometry"/>
                </mxCell>
                <mxCell id="18" value="&lt;font color=&quot;#000000&quot; style=&quot;font-size: 18px;&quot;&gt;About Us&lt;/font&gt;" style="text;html=1;strokeColor=none;fillColor=none;align=center;verticalAlign=middle;whiteSpace=wrap;rounded=0;fontColor=#FFFFFF;" vertex="1" parent="1">
                    <mxGeometry x="1250" y="150" width="250" height="50" as="geometry"/>
                </mxCell>
                <mxCell id="19" value="&lt;font color=&quot;#000000&quot; style=&quot;font-size: 18px;&quot;&gt;&lt;b&gt;Contact Us&lt;/b&gt;&lt;/font&gt;" style="text;html=1;strokeColor=none;fillColor=none;align=center;verticalAlign=middle;whiteSpace=wrap;rounded=0;fontColor=#FFFFFF;" vertex="1" parent="1">
                    <mxGeometry x="1317.5" y="220" width="105" height="30" as="geometry"/>
                </mxCell>
                <mxCell id="20" value="&lt;font style=&quot;font-size: 16px;&quot;&gt;Content?&lt;/font&gt;" style="text;html=1;strokeColor=none;fillColor=none;align=center;verticalAlign=middle;whiteSpace=wrap;rounded=0;" vertex="1" parent="1">
                    <mxGeometry x="765" y="120" width="385" height="130" as="geometry"/>
                </mxCell>
                <mxCell id="21" value="" style="rounded=0;whiteSpace=wrap;html=1;fontSize=16;fillColor=#000000;" vertex="1" parent="1">
                    <mxGeometry x="730" y="250" width="460" height="570" as="geometry"/>
                </mxCell>
                <mxCell id="22" value="&lt;font style=&quot;font-size: 16px;&quot;&gt;2023 Copyright Feather Dusters LLC&lt;/font&gt;" style="text;html=1;strokeColor=none;fillColor=none;align=center;verticalAlign=middle;whiteSpace=wrap;rounded=0;fontSize=12;fontColor=#FFFFFF;" vertex="1" parent="1">
                    <mxGeometry x="727.5" y="1910" width="460" height="30" as="geometry"/>
                </mxCell>
                <mxCell id="23" value="Thank you for taking the time to view our website. We hope you will all decide to join us out in the field this year." style="text;html=1;strokeColor=none;fillColor=none;align=center;verticalAlign=middle;whiteSpace=wrap;rounded=0;fontSize=16;" vertex="1" parent="1">
                    <mxGeometry x="767.5" y="1680" width="380" height="120" as="geometry"/>
                </mxCell>
                <mxCell id="24" value="" style="rounded=0;whiteSpace=wrap;html=1;fontSize=16;fillColor=#FF8000;" vertex="1" parent="1">
                    <mxGeometry x="795" y="1800" width="320" height="120" as="geometry"/>
                </mxCell>
                <mxCell id="25" value="&lt;font style=&quot;font-size: 18px;&quot;&gt;&lt;b&gt;We're bringing in the geese this year.&lt;/b&gt;&lt;/font&gt;" style="text;html=1;strokeColor=none;fillColor=none;align=center;verticalAlign=middle;whiteSpace=wrap;rounded=0;fontSize=16;" vertex="1" parent="1">
                    <mxGeometry x="797.5" y="1810" width="320" height="30" as="geometry"/>
                </mxCell>
                <mxCell id="26" value="&lt;font style=&quot;font-size: 18px;&quot;&gt;You can to.&lt;/font&gt;" style="text;html=1;strokeColor=none;fillColor=none;align=center;verticalAlign=middle;whiteSpace=wrap;rounded=0;fontSize=16;" vertex="1" parent="1">
                    <mxGeometry x="820" y="1840" width="270" height="30" as="geometry"/>
                </mxCell>
                <mxCell id="27" value="" style="rounded=1;whiteSpace=wrap;html=1;fontSize=16;fillColor=#000000;gradientColor=none;gradientDirection=radial;" vertex="1" parent="1">
                    <mxGeometry x="915" y="1870" width="80" height="30" as="geometry"/>
                </mxCell>
                <mxCell id="28" value="&lt;font style=&quot;font-size: 12px;&quot; color=&quot;#ffffff&quot;&gt;Book Today!&lt;/font&gt;" style="text;html=1;strokeColor=none;fillColor=none;align=center;verticalAlign=middle;whiteSpace=wrap;rounded=0;fontSize=16;" vertex="1" parent="1">
                    <mxGeometry x="917.5" y="1880" width="75" height="10" as="geometry"/>
                </mxCell>
                <mxCell id="29" value="" style="rounded=0;whiteSpace=wrap;html=1;fontSize=12;fontColor=#FFFFFF;fillColor=#000000;gradientColor=none;gradientDirection=radial;" vertex="1" parent="1">
                    <mxGeometry x="727.5" y="1980" width="460" height="130" as="geometry"/>
                </mxCell>
                <mxCell id="30" value="&lt;font style=&quot;font-size: 18px;&quot;&gt;&lt;b&gt;WATERFOWL GUIDING FEATHER DUSTERS LLC&lt;/b&gt;&lt;/font&gt;" style="text;html=1;strokeColor=none;fillColor=none;align=center;verticalAlign=middle;whiteSpace=wrap;rounded=0;fontSize=12;fontColor=#FFFFFF;" vertex="1" parent="1">
                    <mxGeometry x="727.5" y="1990" width="460" height="30" as="geometry"/>
                </mxCell>
                <mxCell id="31" value="" style="ellipse;whiteSpace=wrap;html=1;aspect=fixed;fontSize=12;fontColor=#FFFFFF;fillColor=#FFFFFF;gradientColor=none;gradientDirection=radial;" vertex="1" parent="1">
                    <mxGeometry x="942.5" y="2030" width="30" height="30" as="geometry"/>
                </mxCell>
                <mxCell id="32" value="" style="ellipse;whiteSpace=wrap;html=1;aspect=fixed;fontSize=12;fontColor=#FFFFFF;fillColor=#FFFFFF;gradientColor=none;gradientDirection=radial;" vertex="1" parent="1">
                    <mxGeometry x="907.5" y="2030" width="30" height="30" as="geometry"/>
                </mxCell>
                <mxCell id="33" value="" style="ellipse;whiteSpace=wrap;html=1;aspect=fixed;fontSize=12;fontColor=#FFFFFF;fillColor=#FFFFFF;gradientColor=none;gradientDirection=radial;" vertex="1" parent="1">
                    <mxGeometry x="977.5" y="2030" width="30" height="30" as="geometry"/>
                </mxCell>
                <mxCell id="34" value="&lt;font style=&quot;font-size: 14px;&quot;&gt;2023 Copyright Feather Dusters LLC&lt;/font&gt;" style="text;html=1;strokeColor=none;fillColor=none;align=center;verticalAlign=middle;whiteSpace=wrap;rounded=0;fontSize=12;fontColor=#FFFFFF;" vertex="1" parent="1">
                    <mxGeometry x="727.5" y="2080" width="460" height="30" as="geometry"/>
                </mxCell>
                <mxCell id="35" value="" style="line;strokeWidth=2;html=1;fontSize=16;fontColor=#FFFFFF;fillColor=#FFFFFF;gradientColor=none;gradientDirection=radial;strokeColor=#FFFFFF;" vertex="1" parent="1">
                    <mxGeometry x="1130" y="75" width="30" height="10" as="geometry"/>
                </mxCell>
                <mxCell id="36" value="" style="line;strokeWidth=2;html=1;fontSize=16;fontColor=#FFFFFF;fillColor=#FFFFFF;gradientColor=none;gradientDirection=radial;strokeColor=#FFFFFF;" vertex="1" parent="1">
                    <mxGeometry x="1130" y="85" width="30" height="10" as="geometry"/>
                </mxCell>
                <mxCell id="37" value="" style="line;strokeWidth=2;html=1;fontSize=16;fontColor=#FFFFFF;fillColor=#FFFFFF;gradientColor=none;gradientDirection=radial;strokeColor=#FFFFFF;" vertex="1" parent="1">
                    <mxGeometry x="1130" y="65" width="30" height="10" as="geometry"/>
                </mxCell>
                <mxCell id="38" value="" style="shape=cross;whiteSpace=wrap;html=1;strokeColor=#FFFFFF;fontSize=16;fontColor=#FFFFFF;fillColor=#FFFFFF;gradientColor=none;gradientDirection=radial;rotation=45;" vertex="1" parent="1">
                    <mxGeometry x="1480" y="55" width="25" height="25" as="geometry"/>
                </mxCell>
                <mxCell id="40" value="&lt;font style=&quot;font-size: 20px;&quot;&gt;Please contact us with any questions you may have.&lt;/font&gt;" style="text;html=1;strokeColor=none;fillColor=none;align=left;verticalAlign=middle;whiteSpace=wrap;rounded=0;fontSize=16;" vertex="1" parent="1">
                    <mxGeometry x="80" y="280" width="540" height="30" as="geometry"/>
                </mxCell>
                <mxCell id="48" value="Thank you for taking the time to view our website. We hope you will all decide to join us out in the field this year." style="text;html=1;strokeColor=none;fillColor=none;align=center;verticalAlign=middle;whiteSpace=wrap;rounded=0;fontSize=16;" vertex="1" parent="1">
                    <mxGeometry x="80" y="655" width="560" height="120" as="geometry"/>
                </mxCell>
                <mxCell id="54" value="" style="rounded=0;whiteSpace=wrap;html=1;fontSize=12;fontColor=#FFFFFF;fillColor=#000000;gradientColor=none;gradientDirection=radial;" vertex="1" parent="1">
                    <mxGeometry x="30" y="820" width="660" height="130" as="geometry"/>
                </mxCell>
                <mxCell id="55" value="&lt;font style=&quot;font-size: 18px;&quot;&gt;&lt;b&gt;WATERFOWL GUIDING FEATHER DUSTERS LLC&lt;/b&gt;&lt;/font&gt;" style="text;html=1;strokeColor=none;fillColor=none;align=center;verticalAlign=middle;whiteSpace=wrap;rounded=0;fontSize=12;fontColor=#FFFFFF;" vertex="1" parent="1">
                    <mxGeometry x="80" y="830" width="560" height="30" as="geometry"/>
                </mxCell>
                <mxCell id="56" value="" style="ellipse;whiteSpace=wrap;html=1;aspect=fixed;fontSize=12;fontColor=#FFFFFF;fillColor=#FFFFFF;gradientColor=none;gradientDirection=radial;" vertex="1" parent="1">
                    <mxGeometry x="300" y="870" width="30" height="30" as="geometry"/>
                </mxCell>
                <mxCell id="57" value="" style="ellipse;whiteSpace=wrap;html=1;aspect=fixed;fontSize=12;fontColor=#FFFFFF;fillColor=#FFFFFF;gradientColor=none;gradientDirection=radial;" vertex="1" parent="1">
                    <mxGeometry x="335" y="870" width="30" height="30" as="geometry"/>
                </mxCell>
                <mxCell id="58" value="" style="ellipse;whiteSpace=wrap;html=1;aspect=fixed;fontSize=12;fontColor=#FFFFFF;fillColor=#FFFFFF;gradientColor=none;gradientDirection=radial;" vertex="1" parent="1">
                    <mxGeometry x="370" y="870" width="30" height="30" as="geometry"/>
                </mxCell>
                <mxCell id="59" value="&lt;font style=&quot;font-size: 14px;&quot;&gt;2023 Copyright Feather Dusters LLC&lt;/font&gt;" style="text;html=1;strokeColor=none;fillColor=none;align=center;verticalAlign=middle;whiteSpace=wrap;rounded=0;fontSize=12;fontColor=#FFFFFF;" vertex="1" parent="1">
                    <mxGeometry x="60" y="920" width="560" height="30" as="geometry"/>
                </mxCell>
                <mxCell id="60" value="" style="rounded=0;whiteSpace=wrap;html=1;" vertex="1" parent="1">
                    <mxGeometry x="822.5" y="265" width="270" height="200" as="geometry"/>
                </mxCell>
                <mxCell id="61" value="&lt;font color=&quot;#ffffff&quot; style=&quot;font-size: 20px;&quot;&gt;Zackary Russell&lt;/font&gt;" style="text;html=1;strokeColor=none;fillColor=none;align=left;verticalAlign=middle;whiteSpace=wrap;rounded=0;fontSize=16;" vertex="1" parent="1">
                    <mxGeometry x="817.5" y="470" width="240" height="30" as="geometry"/>
                </mxCell>
                <mxCell id="62" value="&lt;font color=&quot;#ffffff&quot; style=&quot;font-size: 18px;&quot;&gt;Co-Owner and Guide&lt;/font&gt;&lt;span style=&quot;color: rgba(0, 0, 0, 0); font-family: monospace; font-size: 0px;&quot;&gt;%3CmxGraphModel%3E%3Croot%3E%3CmxCell%20id%3D%220%22%2F%3E%3CmxCell%20id%3D%221%22%20parent%3D%220%22%2F%3E%3CmxCell%20id%3D%222%22%20value%3D%22%26lt%3Bfont%20color%3D%26quot%3B%23ffffff%26quot%3B%20style%3D%26quot%3Bfont-size%3A%2020px%3B%26quot%3B%26gt%3BZackary%20Russell%26lt%3B%2Ffont%26gt%3B%22%20style%3D%22text%3Bhtml%3D1%3BstrokeColor%3Dnone%3BfillColor%3Dnone%3Balign%3Dcenter%3BverticalAlign%3Dmiddle%3BwhiteSpace%3Dwrap%3Brounded%3D0%3BfontSize%3D16%3B%22%20vertex%3D%221%22%20parent%3D%221%22%3E%3CmxGeometry%20x%3D%22390%22%20y%3D%22290%22%20width%3D%22240%22%20height%3D%2230%22%20as%3D%22geometry%22%2F%3E%3C%2FmxCell%3E%3C%2Froot%3E%3C%2FmxGraphModel%3E&lt;/span&gt;" style="text;html=1;strokeColor=none;fillColor=none;align=left;verticalAlign=middle;whiteSpace=wrap;rounded=0;fontSize=16;" vertex="1" parent="1">
                    <mxGeometry x="822.5" y="500" width="240" height="30" as="geometry"/>
                </mxCell>
                <mxCell id="63" value="&lt;span style=&quot;font-family: Nunito, sans-serif;&quot;&gt;&lt;font color=&quot;#ffffff&quot; style=&quot;font-size: 16px;&quot;&gt;I've been hunting in Grant county for 12 years. I love the challenge of chasing ducks and geese. I also enjoy taking others out to get you on the geese and giving you the opportunity to bag a few. It is very rewarding to see your reactions on a successful hunt. There's nothing like experiencing the sight of a flock of geese dropping into our set of decoys. If you choose to book a hunt with us, we'll look forward to taking you out to get you on the birds.&lt;/font&gt;&lt;/span&gt;" style="text;html=1;strokeColor=none;fillColor=none;align=left;verticalAlign=middle;whiteSpace=wrap;rounded=0;fontSize=16;" vertex="1" parent="1">
                    <mxGeometry x="817.5" y="550" width="300" height="260" as="geometry"/>
                </mxCell>
                <mxCell id="64" value="" style="rounded=0;whiteSpace=wrap;html=1;fontSize=16;fillColor=#000000;" vertex="1" parent="1">
                    <mxGeometry x="730" y="840" width="460" height="840" as="geometry"/>
                </mxCell>
                <mxCell id="65" value="" style="rounded=0;whiteSpace=wrap;html=1;" vertex="1" parent="1">
                    <mxGeometry x="822.5" y="860" width="270" height="200" as="geometry"/>
                </mxCell>
                <mxCell id="66" value="&lt;font color=&quot;#ffffff&quot; style=&quot;font-size: 20px;&quot;&gt;Dustin Caldwell&lt;/font&gt;" style="text;html=1;strokeColor=none;fillColor=none;align=left;verticalAlign=middle;whiteSpace=wrap;rounded=0;fontSize=16;" vertex="1" parent="1">
                    <mxGeometry x="830" y="1085" width="240" height="30" as="geometry"/>
                </mxCell>
                <mxCell id="67" value="&lt;font color=&quot;#ffffff&quot; style=&quot;font-size: 18px;&quot;&gt;Co-Owner and Guide&lt;/font&gt;&lt;span style=&quot;color: rgba(0, 0, 0, 0); font-family: monospace; font-size: 0px;&quot;&gt;%3CmxGraphModel%3E%3Croot%3E%3CmxCell%20id%3D%220%22%2F%3E%3CmxCell%20id%3D%221%22%20parent%3D%220%22%2F%3E%3CmxCell%20id%3D%222%22%20value%3D%22%26lt%3Bfont%20color%3D%26quot%3B%23ffffff%26quot%3B%20style%3D%26quot%3Bfont-size%3A%2020px%3B%26quot%3B%26gt%3BZackary%20Russell%26lt%3B%2Ffont%26gt%3B%22%20style%3D%22text%3Bhtml%3D1%3BstrokeColor%3Dnone%3BfillColor%3Dnone%3Balign%3Dcenter%3BverticalAlign%3Dmiddle%3BwhiteSpace%3Dwrap%3Brounded%3D0%3BfontSize%3D16%3B%22%20vertex%3D%221%22%20parent%3D%221%22%3E%3CmxGeometry%20x%3D%22390%22%20y%3D%22290%22%20width%3D%22240%22%20height%3D%2230%22%20as%3D%22geometry%22%2F%3E%3C%2FmxCell%3E%3C%2Froot%3E%3C%2FmxGraphModel%3E&lt;/span&gt;" style="text;html=1;strokeColor=none;fillColor=none;align=left;verticalAlign=middle;whiteSpace=wrap;rounded=0;fontSize=16;" vertex="1" parent="1">
                    <mxGeometry x="830" y="1130" width="240" height="30" as="geometry"/>
                </mxCell>
                <mxCell id="68" value="&lt;div style=&quot;&quot;&gt;&lt;span style=&quot;font-family: Nunito, sans-serif;&quot;&gt;&lt;font style=&quot;&quot; color=&quot;#ffffff&quot;&gt;Waterfowl hunting has had my heart for as long as I can remember. The excitement of seeing birds committed to the spread is like no other. Whether it be the big honkers or a mallard drake, we will put you on them. Growing up I was brought along to hunt but that meant I had to help with cleaning, packaging and labeling the animal for the freezer. I've learned so many different things about hunting over the years and I can't wait to show people the skills and determination I've gained. As a kid my dad taught me about hunting and preparing the meat, I could never thank him enough for teaching me all I know. I enjoy getting to know all the new people and taking them out to experience our way of hunting. Getting to show people what we do and how we do it will always be our passion. We are always looking forward to teaching others not only a great time but a safe time as well. Be sure to get a hold of us, you will not regret it!&lt;/font&gt;&lt;/span&gt;&lt;/div&gt;" style="text;html=1;strokeColor=none;fillColor=none;align=left;verticalAlign=middle;whiteSpace=wrap;rounded=0;fontSize=16;" vertex="1" parent="1">
                    <mxGeometry x="830" y="1170" width="300" height="490" as="geometry"/>
                </mxCell>
                <mxCell id="69" value="&lt;font style=&quot;font-size: 16px;&quot;&gt;Questions about pricing? Booking for your next hunt?&lt;br&gt;&lt;br&gt;Call, text, or email us and we will happily answer your questions.&lt;br&gt;&lt;br&gt;&lt;/font&gt;" style="text;html=1;strokeColor=none;fillColor=none;align=left;verticalAlign=middle;whiteSpace=wrap;rounded=0;fontSize=16;" vertex="1" parent="1">
                    <mxGeometry x="80" y="325" width="540" height="80" as="geometry"/>
                </mxCell>
                <mxCell id="70" value="&lt;font style=&quot;font-size: 18px;&quot;&gt;Email us!&lt;/font&gt;" style="text;html=1;strokeColor=none;fillColor=none;align=center;verticalAlign=middle;whiteSpace=wrap;rounded=0;fontSize=16;" vertex="1" parent="1">
                    <mxGeometry x="320" y="405" width="80" height="30" as="geometry"/>
                </mxCell>
                <mxCell id="71" value="&lt;span style=&quot;font-size: 16px;&quot;&gt;featherdustrs01@gmail.com&lt;/span&gt;" style="text;html=1;strokeColor=none;fillColor=none;align=center;verticalAlign=middle;whiteSpace=wrap;rounded=0;fontSize=18;" vertex="1" parent="1">
                    <mxGeometry x="160" y="435" width="400" height="30" as="geometry"/>
                </mxCell>
                <mxCell id="72" value="&lt;font style=&quot;font-size: 18px;&quot;&gt;Call or Text our guides&lt;/font&gt;" style="text;html=1;strokeColor=none;fillColor=none;align=center;verticalAlign=middle;whiteSpace=wrap;rounded=0;fontSize=16;" vertex="1" parent="1">
                    <mxGeometry x="235" y="510" width="230" height="30" as="geometry"/>
                </mxCell>
                <mxCell id="73" value="&lt;b&gt;Zackary Russell&lt;/b&gt;" style="text;html=1;strokeColor=none;fillColor=none;align=center;verticalAlign=middle;whiteSpace=wrap;rounded=0;fontSize=16;fontColor=#000000;" vertex="1" parent="1">
                    <mxGeometry x="110" y="560" width="165" height="30" as="geometry"/>
                </mxCell>
                <mxCell id="74" value="&lt;b&gt;Dustin Caldwell&lt;/b&gt;" style="text;html=1;strokeColor=none;fillColor=none;align=center;verticalAlign=middle;whiteSpace=wrap;rounded=0;fontSize=16;fontColor=#000000;" vertex="1" parent="1">
                    <mxGeometry x="417.5" y="560" width="165" height="30" as="geometry"/>
                </mxCell>
                <mxCell id="75" value="509-760-7707" style="text;html=1;strokeColor=none;fillColor=none;align=center;verticalAlign=middle;whiteSpace=wrap;rounded=0;fontSize=16;fontColor=#000000;" vertex="1" parent="1">
                    <mxGeometry x="105" y="590" width="175" height="30" as="geometry"/>
                </mxCell>
                <mxCell id="76" value="509-760-7707" style="text;html=1;strokeColor=none;fillColor=none;align=center;verticalAlign=middle;whiteSpace=wrap;rounded=0;fontSize=16;fontColor=#000000;" vertex="1" parent="1">
                    <mxGeometry x="412.5" y="590" width="175" height="30" as="geometry"/>
                </mxCell>
            </root>
        </mxGraphModel>
    </diagram>
</mxfile>